<svg width="36" height="36" viewBox="0 0 36 36" fill="none" xmlns="http://www.w3.org/2000/svg">
    <circle cx="18" cy="18" r="18" fill="#262B2E"/>
    <circle opacity=".2" cx="18" cy="18" r="15" transform="rotate(10 18 18)" fill="#828A8E"/>
    <path d="M20.605 3.228a3 3 0 0 0-3.476 2.433l-4.167 23.636a3 3 0 0 0 2.433 3.475c8.159 1.439 15.939-4.009 17.377-12.167 1.439-8.159-4.009-15.938-12.167-17.377z" fill="#F69833"/>
    <path fill-rule="evenodd" clip-rule="evenodd" d="M19.203 3.314a3 3 0 0 0-2.074 2.348l-4.167 23.635a3 3 0 0 0 1.145 2.915c6.927-.242 12.981-5.289 14.233-12.388 1.252-7.1-2.71-13.913-9.137-16.51z" fill="#FFC738"/>
</svg>
